<svg xmlns="http://www.w3.org/2000/svg" width="1060" height="640" viewBox="0 0 1060 640">
<rect width="1060" height="640" fill="#FFFFFF"/>
<line x1="80.0" y1="48.0" x2="80.0" y2="192.0" stroke="#cf3b2e" stroke-width="2" stroke-linecap="round"/>
<line x1="102.0" y1="70.0" x2="102.0" y2="170.0" stroke="#cf3b2e" stroke-width="2" stroke-linecap="round"/>
<line x1="80.0" y1="48.0" x2="102.0" y2="70.0" stroke="#cf3b2e" stroke-width="2" stroke-linecap="round"/>
<line x1="80.0" y1="192.0" x2="102.0" y2="170.0" stroke="#cf3b2e" stroke-width="2" stroke-linecap="round"/>
<line x1="50.0" y1="120.0" x2="80.0" y2="120.0" stroke="#cf3b2e" stroke-width="2" stroke-linecap="round"/>
<line x1="102.0" y1="70.0" x2="132.0" y2="70.0" stroke="#cf3b2e" stroke-width="2" stroke-linecap="round"/>
<line x1="102.0" y1="170.0" x2="132.0" y2="170.0" stroke="#cf3b2e" stroke-width="2" stroke-linecap="round"/>
<line x1="102.0" y1="378.0" x2="102.0" y2="522.0" stroke="#1f6feb" stroke-width="2" stroke-linecap="round"/>
<line x1="80.0" y1="400.0" x2="80.0" y2="500.0" stroke="#1f6feb" stroke-width="2" stroke-linecap="round"/>
<line x1="102.0" y1="378.0" x2="80.0" y2="400.0" stroke="#1f6feb" stroke-width="2" stroke-linecap="round"/>
<line x1="102.0" y1="522.0" x2="80.0" y2="500.0" stroke="#1f6feb" stroke-width="2" stroke-linecap="round"/>
<line x1="132.0" y1="398.0" x2="102.0" y2="398.0" stroke="#1f6feb" stroke-width="2" stroke-linecap="round"/>
<line x1="132.0" y1="502.0" x2="102.0" y2="502.0" stroke="#1f6feb" stroke-width="2" stroke-linecap="round"/>
<line x1="80.0" y1="400.0" x2="50.0" y2="400.0" stroke="#1f6feb" stroke-width="2" stroke-linecap="round"/>
<line x1="80.0" y1="500.0" x2="50.0" y2="500.0" stroke="#1f6feb" stroke-width="2" stroke-linecap="round"/>
<line x1="192.0" y1="115.0" x2="224.0" y2="115.0" stroke="#cf3b2e" stroke-width="2" stroke-linecap="round"/>
<line x1="192.0" y1="125.0" x2="224.0" y2="125.0" stroke="#cf3b2e" stroke-width="2" stroke-linecap="round"/>
<line x1="208.0" y1="70.0" x2="208.0" y2="115.0" stroke="#cf3b2e" stroke-width="2" stroke-linecap="round"/>
<line x1="208.0" y1="125.0" x2="208.0" y2="170.0" stroke="#cf3b2e" stroke-width="2" stroke-linecap="round"/>
<line x1="265.0" y1="154.0" x2="265.0" y2="186.0" stroke="#cf3b2e" stroke-width="2" stroke-linecap="round"/>
<line x1="275.0" y1="154.0" x2="275.0" y2="186.0" stroke="#cf3b2e" stroke-width="2" stroke-linecap="round"/>
<line x1="253.0" y1="170.0" x2="265.0" y2="170.0" stroke="#cf3b2e" stroke-width="2" stroke-linecap="round"/>
<line x1="275.0" y1="170.0" x2="287.0" y2="170.0" stroke="#cf3b2e" stroke-width="2" stroke-linecap="round"/>
<line x1="370.0" y1="96.0" x2="372.296" y2="96.457" stroke="#cf3b2e" stroke-width="2" stroke-linecap="round"/>
<line x1="372.296" y1="96.457" x2="374.243" y2="97.757" stroke="#cf3b2e" stroke-width="2" stroke-linecap="round"/>
<line x1="374.243" y1="97.757" x2="375.543" y2="99.704" stroke="#cf3b2e" stroke-width="2" stroke-linecap="round"/>
<line x1="375.543" y1="99.704" x2="376.0" y2="102.0" stroke="#cf3b2e" stroke-width="2" stroke-linecap="round"/>
<line x1="376.0" y1="102.0" x2="375.543" y2="104.296" stroke="#cf3b2e" stroke-width="2" stroke-linecap="round"/>
<line x1="375.543" y1="104.296" x2="374.243" y2="106.243" stroke="#cf3b2e" stroke-width="2" stroke-linecap="round"/>
<line x1="374.243" y1="106.243" x2="372.296" y2="107.543" stroke="#cf3b2e" stroke-width="2" stroke-linecap="round"/>
<line x1="372.296" y1="107.543" x2="370.0" y2="108.0" stroke="#cf3b2e" stroke-width="2" stroke-linecap="round"/>
<line x1="370.0" y1="108.0" x2="372.296" y2="108.457" stroke="#cf3b2e" stroke-width="2" stroke-linecap="round"/>
<line x1="372.296" y1="108.457" x2="374.243" y2="109.757" stroke="#cf3b2e" stroke-width="2" stroke-linecap="round"/>
<line x1="374.243" y1="109.757" x2="375.543" y2="111.704" stroke="#cf3b2e" stroke-width="2" stroke-linecap="round"/>
<line x1="375.543" y1="111.704" x2="376.0" y2="114.0" stroke="#cf3b2e" stroke-width="2" stroke-linecap="round"/>
<line x1="376.0" y1="114.0" x2="375.543" y2="116.296" stroke="#cf3b2e" stroke-width="2" stroke-linecap="round"/>
<line x1="375.543" y1="116.296" x2="374.243" y2="118.243" stroke="#cf3b2e" stroke-width="2" stroke-linecap="round"/>
<line x1="374.243" y1="118.243" x2="372.296" y2="119.543" stroke="#cf3b2e" stroke-width="2" stroke-linecap="round"/>
<line x1="372.296" y1="119.543" x2="370.0" y2="120.0" stroke="#cf3b2e" stroke-width="2" stroke-linecap="round"/>
<line x1="370.0" y1="120.0" x2="372.296" y2="120.457" stroke="#cf3b2e" stroke-width="2" stroke-linecap="round"/>
<line x1="372.296" y1="120.457" x2="374.243" y2="121.757" stroke="#cf3b2e" stroke-width="2" stroke-linecap="round"/>
<line x1="374.243" y1="121.757" x2="375.543" y2="123.704" stroke="#cf3b2e" stroke-width="2" stroke-linecap="round"/>
<line x1="375.543" y1="123.704" x2="376.0" y2="126.0" stroke="#cf3b2e" stroke-width="2" stroke-linecap="round"/>
<line x1="376.0" y1="126.0" x2="375.543" y2="128.296" stroke="#cf3b2e" stroke-width="2" stroke-linecap="round"/>
<line x1="375.543" y1="128.296" x2="374.243" y2="130.243" stroke="#cf3b2e" stroke-width="2" stroke-linecap="round"/>
<line x1="374.243" y1="130.243" x2="372.296" y2="131.543" stroke="#cf3b2e" stroke-width="2" stroke-linecap="round"/>
<line x1="372.296" y1="131.543" x2="370.0" y2="132.0" stroke="#cf3b2e" stroke-width="2" stroke-linecap="round"/>
<line x1="370.0" y1="132.0" x2="372.296" y2="132.457" stroke="#cf3b2e" stroke-width="2" stroke-linecap="round"/>
<line x1="372.296" y1="132.457" x2="374.243" y2="133.757" stroke="#cf3b2e" stroke-width="2" stroke-linecap="round"/>
<line x1="374.243" y1="133.757" x2="375.543" y2="135.704" stroke="#cf3b2e" stroke-width="2" stroke-linecap="round"/>
<line x1="375.543" y1="135.704" x2="376.0" y2="138.0" stroke="#cf3b2e" stroke-width="2" stroke-linecap="round"/>
<line x1="376.0" y1="138.0" x2="375.543" y2="140.296" stroke="#cf3b2e" stroke-width="2" stroke-linecap="round"/>
<line x1="375.543" y1="140.296" x2="374.243" y2="142.243" stroke="#cf3b2e" stroke-width="2" stroke-linecap="round"/>
<line x1="374.243" y1="142.243" x2="372.296" y2="143.543" stroke="#cf3b2e" stroke-width="2" stroke-linecap="round"/>
<line x1="372.296" y1="143.543" x2="370.0" y2="144.0" stroke="#cf3b2e" stroke-width="2" stroke-linecap="round"/>
<line x1="370.0" y1="70.0" x2="370.0" y2="96.0" stroke="#cf3b2e" stroke-width="2" stroke-linecap="round"/>
<line x1="370.0" y1="144.0" x2="370.0" y2="170.0" stroke="#cf3b2e" stroke-width="2" stroke-linecap="round"/>
<line x1="415.0" y1="54.0" x2="415.0" y2="86.0" stroke="#cf3b2e" stroke-width="2" stroke-linecap="round"/>
<line x1="425.0" y1="54.0" x2="425.0" y2="86.0" stroke="#cf3b2e" stroke-width="2" stroke-linecap="round"/>
<line x1="400.0" y1="70.0" x2="415.0" y2="70.0" stroke="#cf3b2e" stroke-width="2" stroke-linecap="round"/>
<line x1="425.0" y1="70.0" x2="440.0" y2="70.0" stroke="#cf3b2e" stroke-width="2" stroke-linecap="round"/>
<line x1="460.0" y1="70.0" x2="460.0" y2="80.0" stroke="#cf3b2e" stroke-width="2" stroke-linecap="round"/>
<line x1="448.0" y1="80.0" x2="472.0" y2="80.0" stroke="#cf3b2e" stroke-width="2" stroke-linecap="round"/>
<line x1="452.0" y1="86.0" x2="468.0" y2="86.0" stroke="#cf3b2e" stroke-width="2" stroke-linecap="round"/>
<line x1="456.0" y1="92.0" x2="464.0" y2="92.0" stroke="#cf3b2e" stroke-width="2" stroke-linecap="round"/>
<line x1="208.0" y1="426.0" x2="210.296" y2="426.457" stroke="#1f6feb" stroke-width="2" stroke-linecap="round"/>
<line x1="210.296" y1="426.457" x2="212.243" y2="427.757" stroke="#1f6feb" stroke-width="2" stroke-linecap="round"/>
<line x1="212.243" y1="427.757" x2="213.543" y2="429.704" stroke="#1f6feb" stroke-width="2" stroke-linecap="round"/>
<line x1="213.543" y1="429.704" x2="214.0" y2="432.0" stroke="#1f6feb" stroke-width="2" stroke-linecap="round"/>
<line x1="214.0" y1="432.0" x2="213.543" y2="434.296" stroke="#1f6feb" stroke-width="2" stroke-linecap="round"/>
<line x1="213.543" y1="434.296" x2="212.243" y2="436.243" stroke="#1f6feb" stroke-width="2" stroke-linecap="round"/>
<line x1="212.243" y1="436.243" x2="210.296" y2="437.543" stroke="#1f6feb" stroke-width="2" stroke-linecap="round"/>
<line x1="210.296" y1="437.543" x2="208.0" y2="438.0" stroke="#1f6feb" stroke-width="2" stroke-linecap="round"/>
<line x1="208.0" y1="438.0" x2="210.296" y2="438.457" stroke="#1f6feb" stroke-width="2" stroke-linecap="round"/>
<line x1="210.296" y1="438.457" x2="212.243" y2="439.757" stroke="#1f6feb" stroke-width="2" stroke-linecap="round"/>
<line x1="212.243" y1="439.757" x2="213.543" y2="441.704" stroke="#1f6feb" stroke-width="2" stroke-linecap="round"/>
<line x1="213.543" y1="441.704" x2="214.0" y2="444.0" stroke="#1f6feb" stroke-width="2" stroke-linecap="round"/>
<line x1="214.0" y1="444.0" x2="213.543" y2="446.296" stroke="#1f6feb" stroke-width="2" stroke-linecap="round"/>
<line x1="213.543" y1="446.296" x2="212.243" y2="448.243" stroke="#1f6feb" stroke-width="2" stroke-linecap="round"/>
<line x1="212.243" y1="448.243" x2="210.296" y2="449.543" stroke="#1f6feb" stroke-width="2" stroke-linecap="round"/>
<line x1="210.296" y1="449.543" x2="208.0" y2="450.0" stroke="#1f6feb" stroke-width="2" stroke-linecap="round"/>
<line x1="208.0" y1="450.0" x2="210.296" y2="450.457" stroke="#1f6feb" stroke-width="2" stroke-linecap="round"/>
<line x1="210.296" y1="450.457" x2="212.243" y2="451.757" stroke="#1f6feb" stroke-width="2" stroke-linecap="round"/>
<line x1="212.243" y1="451.757" x2="213.543" y2="453.704" stroke="#1f6feb" stroke-width="2" stroke-linecap="round"/>
<line x1="213.543" y1="453.704" x2="214.0" y2="456.0" stroke="#1f6feb" stroke-width="2" stroke-linecap="round"/>
<line x1="214.0" y1="456.0" x2="213.543" y2="458.296" stroke="#1f6feb" stroke-width="2" stroke-linecap="round"/>
<line x1="213.543" y1="458.296" x2="212.243" y2="460.243" stroke="#1f6feb" stroke-width="2" stroke-linecap="round"/>
<line x1="212.243" y1="460.243" x2="210.296" y2="461.543" stroke="#1f6feb" stroke-width="2" stroke-linecap="round"/>
<line x1="210.296" y1="461.543" x2="208.0" y2="462.0" stroke="#1f6feb" stroke-width="2" stroke-linecap="round"/>
<line x1="208.0" y1="462.0" x2="210.296" y2="462.457" stroke="#1f6feb" stroke-width="2" stroke-linecap="round"/>
<line x1="210.296" y1="462.457" x2="212.243" y2="463.757" stroke="#1f6feb" stroke-width="2" stroke-linecap="round"/>
<line x1="212.243" y1="463.757" x2="213.543" y2="465.704" stroke="#1f6feb" stroke-width="2" stroke-linecap="round"/>
<line x1="213.543" y1="465.704" x2="214.0" y2="468.0" stroke="#1f6feb" stroke-width="2" stroke-linecap="round"/>
<line x1="214.0" y1="468.0" x2="213.543" y2="470.296" stroke="#1f6feb" stroke-width="2" stroke-linecap="round"/>
<line x1="213.543" y1="470.296" x2="212.243" y2="472.243" stroke="#1f6feb" stroke-width="2" stroke-linecap="round"/>
<line x1="212.243" y1="472.243" x2="210.296" y2="473.543" stroke="#1f6feb" stroke-width="2" stroke-linecap="round"/>
<line x1="210.296" y1="473.543" x2="208.0" y2="474.0" stroke="#1f6feb" stroke-width="2" stroke-linecap="round"/>
<line x1="208.0" y1="398.0" x2="208.0" y2="426.0" stroke="#1f6feb" stroke-width="2" stroke-linecap="round"/>
<line x1="208.0" y1="474.0" x2="208.0" y2="502.0" stroke="#1f6feb" stroke-width="2" stroke-linecap="round"/>
<line x1="265.0" y1="382.0" x2="265.0" y2="414.0" stroke="#1f6feb" stroke-width="2" stroke-linecap="round"/>
<line x1="275.0" y1="382.0" x2="275.0" y2="414.0" stroke="#1f6feb" stroke-width="2" stroke-linecap="round"/>
<line x1="253.0" y1="398.0" x2="265.0" y2="398.0" stroke="#1f6feb" stroke-width="2" stroke-linecap="round"/>
<line x1="275.0" y1="398.0" x2="287.0" y2="398.0" stroke="#1f6feb" stroke-width="2" stroke-linecap="round"/>
<line x1="370.0" y1="464.0" x2="372.296" y2="464.457" stroke="#1f6feb" stroke-width="2" stroke-linecap="round"/>
<line x1="372.296" y1="464.457" x2="374.243" y2="465.757" stroke="#1f6feb" stroke-width="2" stroke-linecap="round"/>
<line x1="374.243" y1="465.757" x2="375.543" y2="467.704" stroke="#1f6feb" stroke-width="2" stroke-linecap="round"/>
<line x1="375.543" y1="467.704" x2="376.0" y2="470.0" stroke="#1f6feb" stroke-width="2" stroke-linecap="round"/>
<line x1="376.0" y1="470.0" x2="375.543" y2="472.296" stroke="#1f6feb" stroke-width="2" stroke-linecap="round"/>
<line x1="375.543" y1="472.296" x2="374.243" y2="474.243" stroke="#1f6feb" stroke-width="2" stroke-linecap="round"/>
<line x1="374.243" y1="474.243" x2="372.296" y2="475.543" stroke="#1f6feb" stroke-width="2" stroke-linecap="round"/>
<line x1="372.296" y1="475.543" x2="370.0" y2="476.0" stroke="#1f6feb" stroke-width="2" stroke-linecap="round"/>
<line x1="370.0" y1="476.0" x2="372.296" y2="476.457" stroke="#1f6feb" stroke-width="2" stroke-linecap="round"/>
<line x1="372.296" y1="476.457" x2="374.243" y2="477.757" stroke="#1f6feb" stroke-width="2" stroke-linecap="round"/>
<line x1="374.243" y1="477.757" x2="375.543" y2="479.704" stroke="#1f6feb" stroke-width="2" stroke-linecap="round"/>
<line x1="375.543" y1="479.704" x2="376.0" y2="482.0" stroke="#1f6feb" stroke-width="2" stroke-linecap="round"/>
<line x1="376.0" y1="482.0" x2="375.543" y2="484.296" stroke="#1f6feb" stroke-width="2" stroke-linecap="round"/>
<line x1="375.543" y1="484.296" x2="374.243" y2="486.243" stroke="#1f6feb" stroke-width="2" stroke-linecap="round"/>
<line x1="374.243" y1="486.243" x2="372.296" y2="487.543" stroke="#1f6feb" stroke-width="2" stroke-linecap="round"/>
<line x1="372.296" y1="487.543" x2="370.0" y2="488.0" stroke="#1f6feb" stroke-width="2" stroke-linecap="round"/>
<line x1="370.0" y1="488.0" x2="372.296" y2="488.457" stroke="#1f6feb" stroke-width="2" stroke-linecap="round"/>
<line x1="372.296" y1="488.457" x2="374.243" y2="489.757" stroke="#1f6feb" stroke-width="2" stroke-linecap="round"/>
<line x1="374.243" y1="489.757" x2="375.543" y2="491.704" stroke="#1f6feb" stroke-width="2" stroke-linecap="round"/>
<line x1="375.543" y1="491.704" x2="376.0" y2="494.0" stroke="#1f6feb" stroke-width="2" stroke-linecap="round"/>
<line x1="376.0" y1="494.0" x2="375.543" y2="496.296" stroke="#1f6feb" stroke-width="2" stroke-linecap="round"/>
<line x1="375.543" y1="496.296" x2="374.243" y2="498.243" stroke="#1f6feb" stroke-width="2" stroke-linecap="round"/>
<line x1="374.243" y1="498.243" x2="372.296" y2="499.543" stroke="#1f6feb" stroke-width="2" stroke-linecap="round"/>
<line x1="372.296" y1="499.543" x2="370.0" y2="500.0" stroke="#1f6feb" stroke-width="2" stroke-linecap="round"/>
<line x1="370.0" y1="500.0" x2="372.296" y2="500.457" stroke="#1f6feb" stroke-width="2" stroke-linecap="round"/>
<line x1="372.296" y1="500.457" x2="374.243" y2="501.757" stroke="#1f6feb" stroke-width="2" stroke-linecap="round"/>
<line x1="374.243" y1="501.757" x2="375.543" y2="503.704" stroke="#1f6feb" stroke-width="2" stroke-linecap="round"/>
<line x1="375.543" y1="503.704" x2="376.0" y2="506.0" stroke="#1f6feb" stroke-width="2" stroke-linecap="round"/>
<line x1="376.0" y1="506.0" x2="375.543" y2="508.296" stroke="#1f6feb" stroke-width="2" stroke-linecap="round"/>
<line x1="375.543" y1="508.296" x2="374.243" y2="510.243" stroke="#1f6feb" stroke-width="2" stroke-linecap="round"/>
<line x1="374.243" y1="510.243" x2="372.296" y2="511.543" stroke="#1f6feb" stroke-width="2" stroke-linecap="round"/>
<line x1="372.296" y1="511.543" x2="370.0" y2="512.0" stroke="#1f6feb" stroke-width="2" stroke-linecap="round"/>
<line x1="370.0" y1="438.0" x2="370.0" y2="464.0" stroke="#1f6feb" stroke-width="2" stroke-linecap="round"/>
<line x1="370.0" y1="512.0" x2="370.0" y2="538.0" stroke="#1f6feb" stroke-width="2" stroke-linecap="round"/>
<line x1="265.0" y1="486.0" x2="265.0" y2="518.0" stroke="#1f6feb" stroke-width="2" stroke-linecap="round"/>
<line x1="275.0" y1="486.0" x2="275.0" y2="518.0" stroke="#1f6feb" stroke-width="2" stroke-linecap="round"/>
<line x1="253.0" y1="502.0" x2="265.0" y2="502.0" stroke="#1f6feb" stroke-width="2" stroke-linecap="round"/>
<line x1="275.0" y1="502.0" x2="287.0" y2="502.0" stroke="#1f6feb" stroke-width="2" stroke-linecap="round"/>
<line x1="415.0" y1="522.0" x2="415.0" y2="554.0" stroke="#1f6feb" stroke-width="2" stroke-linecap="round"/>
<line x1="425.0" y1="522.0" x2="425.0" y2="554.0" stroke="#1f6feb" stroke-width="2" stroke-linecap="round"/>
<line x1="400.0" y1="538.0" x2="415.0" y2="538.0" stroke="#1f6feb" stroke-width="2" stroke-linecap="round"/>
<line x1="425.0" y1="538.0" x2="440.0" y2="538.0" stroke="#1f6feb" stroke-width="2" stroke-linecap="round"/>
<line x1="460.0" y1="538.0" x2="460.0" y2="548.0" stroke="#1f6feb" stroke-width="2" stroke-linecap="round"/>
<line x1="448.0" y1="548.0" x2="472.0" y2="548.0" stroke="#1f6feb" stroke-width="2" stroke-linecap="round"/>
<line x1="452.0" y1="554.0" x2="468.0" y2="554.0" stroke="#1f6feb" stroke-width="2" stroke-linecap="round"/>
<line x1="456.0" y1="560.0" x2="464.0" y2="560.0" stroke="#1f6feb" stroke-width="2" stroke-linecap="round"/>
<line x1="450.0" y1="268.0" x2="482.0" y2="268.0" stroke="#7a4fbf" stroke-width="2" stroke-linecap="round"/>
<line x1="450.0" y1="278.0" x2="482.0" y2="278.0" stroke="#7a4fbf" stroke-width="2" stroke-linecap="round"/>
<line x1="466.0" y1="255.0" x2="466.0" y2="268.0" stroke="#7a4fbf" stroke-width="2" stroke-linecap="round"/>
<line x1="466.0" y1="278.0" x2="466.0" y2="291.0" stroke="#7a4fbf" stroke-width="2" stroke-linecap="round"/>
<line x1="466.0" y1="291.0" x2="466.0" y2="301.0" stroke="#7a4fbf" stroke-width="2" stroke-linecap="round"/>
<line x1="454.0" y1="301.0" x2="478.0" y2="301.0" stroke="#7a4fbf" stroke-width="2" stroke-linecap="round"/>
<line x1="458.0" y1="307.0" x2="474.0" y2="307.0" stroke="#7a4fbf" stroke-width="2" stroke-linecap="round"/>
<line x1="462.0" y1="313.0" x2="470.0" y2="313.0" stroke="#7a4fbf" stroke-width="2" stroke-linecap="round"/>
<line x1="505.0" y1="255.0" x2="505.343" y2="253.278" stroke="#7a4fbf" stroke-width="2" stroke-linecap="round"/>
<line x1="505.343" y1="253.278" x2="506.318" y2="251.818" stroke="#7a4fbf" stroke-width="2" stroke-linecap="round"/>
<line x1="506.318" y1="251.818" x2="507.778" y2="250.843" stroke="#7a4fbf" stroke-width="2" stroke-linecap="round"/>
<line x1="507.778" y1="250.843" x2="509.5" y2="250.5" stroke="#7a4fbf" stroke-width="2" stroke-linecap="round"/>
<line x1="509.5" y1="250.5" x2="511.222" y2="250.843" stroke="#7a4fbf" stroke-width="2" stroke-linecap="round"/>
<line x1="511.222" y1="250.843" x2="512.682" y2="251.818" stroke="#7a4fbf" stroke-width="2" stroke-linecap="round"/>
<line x1="512.682" y1="251.818" x2="513.657" y2="253.278" stroke="#7a4fbf" stroke-width="2" stroke-linecap="round"/>
<line x1="513.657" y1="253.278" x2="514.0" y2="255.0" stroke="#7a4fbf" stroke-width="2" stroke-linecap="round"/>
<line x1="514.0" y1="255.0" x2="514.343" y2="253.278" stroke="#7a4fbf" stroke-width="2" stroke-linecap="round"/>
<line x1="514.343" y1="253.278" x2="515.318" y2="251.818" stroke="#7a4fbf" stroke-width="2" stroke-linecap="round"/>
<line x1="515.318" y1="251.818" x2="516.778" y2="250.843" stroke="#7a4fbf" stroke-width="2" stroke-linecap="round"/>
<line x1="516.778" y1="250.843" x2="518.5" y2="250.5" stroke="#7a4fbf" stroke-width="2" stroke-linecap="round"/>
<line x1="518.5" y1="250.5" x2="520.222" y2="250.843" stroke="#7a4fbf" stroke-width="2" stroke-linecap="round"/>
<line x1="520.222" y1="250.843" x2="521.682" y2="251.818" stroke="#7a4fbf" stroke-width="2" stroke-linecap="round"/>
<line x1="521.682" y1="251.818" x2="522.657" y2="253.278" stroke="#7a4fbf" stroke-width="2" stroke-linecap="round"/>
<line x1="522.657" y1="253.278" x2="523.0" y2="255.0" stroke="#7a4fbf" stroke-width="2" stroke-linecap="round"/>
<line x1="523.0" y1="255.0" x2="523.343" y2="253.278" stroke="#7a4fbf" stroke-width="2" stroke-linecap="round"/>
<line x1="523.343" y1="253.278" x2="524.318" y2="251.818" stroke="#7a4fbf" stroke-width="2" stroke-linecap="round"/>
<line x1="524.318" y1="251.818" x2="525.778" y2="250.843" stroke="#7a4fbf" stroke-width="2" stroke-linecap="round"/>
<line x1="525.778" y1="250.843" x2="527.5" y2="250.5" stroke="#7a4fbf" stroke-width="2" stroke-linecap="round"/>
<line x1="527.5" y1="250.5" x2="529.222" y2="250.843" stroke="#7a4fbf" stroke-width="2" stroke-linecap="round"/>
<line x1="529.222" y1="250.843" x2="530.682" y2="251.818" stroke="#7a4fbf" stroke-width="2" stroke-linecap="round"/>
<line x1="530.682" y1="251.818" x2="531.657" y2="253.278" stroke="#7a4fbf" stroke-width="2" stroke-linecap="round"/>
<line x1="531.657" y1="253.278" x2="532.0" y2="255.0" stroke="#7a4fbf" stroke-width="2" stroke-linecap="round"/>
<line x1="532.0" y1="255.0" x2="532.343" y2="253.278" stroke="#7a4fbf" stroke-width="2" stroke-linecap="round"/>
<line x1="532.343" y1="253.278" x2="533.318" y2="251.818" stroke="#7a4fbf" stroke-width="2" stroke-linecap="round"/>
<line x1="533.318" y1="251.818" x2="534.778" y2="250.843" stroke="#7a4fbf" stroke-width="2" stroke-linecap="round"/>
<line x1="534.778" y1="250.843" x2="536.5" y2="250.5" stroke="#7a4fbf" stroke-width="2" stroke-linecap="round"/>
<line x1="536.5" y1="250.5" x2="538.222" y2="250.843" stroke="#7a4fbf" stroke-width="2" stroke-linecap="round"/>
<line x1="538.222" y1="250.843" x2="539.682" y2="251.818" stroke="#7a4fbf" stroke-width="2" stroke-linecap="round"/>
<line x1="539.682" y1="251.818" x2="540.657" y2="253.278" stroke="#7a4fbf" stroke-width="2" stroke-linecap="round"/>
<line x1="540.657" y1="253.278" x2="541.0" y2="255.0" stroke="#7a4fbf" stroke-width="2" stroke-linecap="round"/>
<line x1="502.0" y1="255.0" x2="505.0" y2="255.0" stroke="#7a4fbf" stroke-width="2" stroke-linecap="round"/>
<line x1="541.0" y1="255.0" x2="544.0" y2="255.0" stroke="#7a4fbf" stroke-width="2" stroke-linecap="round"/>
<line x1="570.0" y1="268.0" x2="602.0" y2="268.0" stroke="#7a4fbf" stroke-width="2" stroke-linecap="round"/>
<line x1="570.0" y1="278.0" x2="602.0" y2="278.0" stroke="#7a4fbf" stroke-width="2" stroke-linecap="round"/>
<line x1="586.0" y1="255.0" x2="586.0" y2="268.0" stroke="#7a4fbf" stroke-width="2" stroke-linecap="round"/>
<line x1="586.0" y1="278.0" x2="586.0" y2="291.0" stroke="#7a4fbf" stroke-width="2" stroke-linecap="round"/>
<line x1="586.0" y1="291.0" x2="586.0" y2="301.0" stroke="#7a4fbf" stroke-width="2" stroke-linecap="round"/>
<line x1="574.0" y1="301.0" x2="598.0" y2="301.0" stroke="#7a4fbf" stroke-width="2" stroke-linecap="round"/>
<line x1="578.0" y1="307.0" x2="594.0" y2="307.0" stroke="#7a4fbf" stroke-width="2" stroke-linecap="round"/>
<line x1="582.0" y1="313.0" x2="590.0" y2="313.0" stroke="#7a4fbf" stroke-width="2" stroke-linecap="round"/>
<line x1="630.0" y1="239.0" x2="630.0" y2="271.0" stroke="#7a4fbf" stroke-width="2" stroke-linecap="round"/>
<line x1="640.0" y1="239.0" x2="640.0" y2="271.0" stroke="#7a4fbf" stroke-width="2" stroke-linecap="round"/>
<line x1="615.0" y1="255.0" x2="630.0" y2="255.0" stroke="#7a4fbf" stroke-width="2" stroke-linecap="round"/>
<line x1="640.0" y1="255.0" x2="655.0" y2="255.0" stroke="#7a4fbf" stroke-width="2" stroke-linecap="round"/>
<line x1="744.0" y1="248.0" x2="776.0" y2="248.0" stroke="#7a4fbf" stroke-width="2" stroke-linecap="round"/>
<line x1="744.0" y1="262.0" x2="776.0" y2="262.0" stroke="#7a4fbf" stroke-width="2" stroke-linecap="round"/>
<line x1="744.0" y1="248.0" x2="744.0" y2="262.0" stroke="#7a4fbf" stroke-width="2" stroke-linecap="round"/>
<line x1="776.0" y1="248.0" x2="776.0" y2="262.0" stroke="#7a4fbf" stroke-width="2" stroke-linecap="round"/>
<line x1="720.0" y1="255.0" x2="744.0" y2="255.0" stroke="#7a4fbf" stroke-width="2" stroke-linecap="round"/>
<line x1="776.0" y1="255.0" x2="800.0" y2="255.0" stroke="#7a4fbf" stroke-width="2" stroke-linecap="round"/>
<line x1="840.0" y1="266.0" x2="842.296" y2="266.457" stroke="#7a4fbf" stroke-width="2" stroke-linecap="round"/>
<line x1="842.296" y1="266.457" x2="844.243" y2="267.757" stroke="#7a4fbf" stroke-width="2" stroke-linecap="round"/>
<line x1="844.243" y1="267.757" x2="845.543" y2="269.704" stroke="#7a4fbf" stroke-width="2" stroke-linecap="round"/>
<line x1="845.543" y1="269.704" x2="846.0" y2="272.0" stroke="#7a4fbf" stroke-width="2" stroke-linecap="round"/>
<line x1="846.0" y1="272.0" x2="845.543" y2="274.296" stroke="#7a4fbf" stroke-width="2" stroke-linecap="round"/>
<line x1="845.543" y1="274.296" x2="844.243" y2="276.243" stroke="#7a4fbf" stroke-width="2" stroke-linecap="round"/>
<line x1="844.243" y1="276.243" x2="842.296" y2="277.543" stroke="#7a4fbf" stroke-width="2" stroke-linecap="round"/>
<line x1="842.296" y1="277.543" x2="840.0" y2="278.0" stroke="#7a4fbf" stroke-width="2" stroke-linecap="round"/>
<line x1="840.0" y1="278.0" x2="842.296" y2="278.457" stroke="#7a4fbf" stroke-width="2" stroke-linecap="round"/>
<line x1="842.296" y1="278.457" x2="844.243" y2="279.757" stroke="#7a4fbf" stroke-width="2" stroke-linecap="round"/>
<line x1="844.243" y1="279.757" x2="845.543" y2="281.704" stroke="#7a4fbf" stroke-width="2" stroke-linecap="round"/>
<line x1="845.543" y1="281.704" x2="846.0" y2="284.0" stroke="#7a4fbf" stroke-width="2" stroke-linecap="round"/>
<line x1="846.0" y1="284.0" x2="845.543" y2="286.296" stroke="#7a4fbf" stroke-width="2" stroke-linecap="round"/>
<line x1="845.543" y1="286.296" x2="844.243" y2="288.243" stroke="#7a4fbf" stroke-width="2" stroke-linecap="round"/>
<line x1="844.243" y1="288.243" x2="842.296" y2="289.543" stroke="#7a4fbf" stroke-width="2" stroke-linecap="round"/>
<line x1="842.296" y1="289.543" x2="840.0" y2="290.0" stroke="#7a4fbf" stroke-width="2" stroke-linecap="round"/>
<line x1="840.0" y1="290.0" x2="842.296" y2="290.457" stroke="#7a4fbf" stroke-width="2" stroke-linecap="round"/>
<line x1="842.296" y1="290.457" x2="844.243" y2="291.757" stroke="#7a4fbf" stroke-width="2" stroke-linecap="round"/>
<line x1="844.243" y1="291.757" x2="845.543" y2="293.704" stroke="#7a4fbf" stroke-width="2" stroke-linecap="round"/>
<line x1="845.543" y1="293.704" x2="846.0" y2="296.0" stroke="#7a4fbf" stroke-width="2" stroke-linecap="round"/>
<line x1="846.0" y1="296.0" x2="845.543" y2="298.296" stroke="#7a4fbf" stroke-width="2" stroke-linecap="round"/>
<line x1="845.543" y1="298.296" x2="844.243" y2="300.243" stroke="#7a4fbf" stroke-width="2" stroke-linecap="round"/>
<line x1="844.243" y1="300.243" x2="842.296" y2="301.543" stroke="#7a4fbf" stroke-width="2" stroke-linecap="round"/>
<line x1="842.296" y1="301.543" x2="840.0" y2="302.0" stroke="#7a4fbf" stroke-width="2" stroke-linecap="round"/>
<line x1="840.0" y1="302.0" x2="842.296" y2="302.457" stroke="#7a4fbf" stroke-width="2" stroke-linecap="round"/>
<line x1="842.296" y1="302.457" x2="844.243" y2="303.757" stroke="#7a4fbf" stroke-width="2" stroke-linecap="round"/>
<line x1="844.243" y1="303.757" x2="845.543" y2="305.704" stroke="#7a4fbf" stroke-width="2" stroke-linecap="round"/>
<line x1="845.543" y1="305.704" x2="846.0" y2="308.0" stroke="#7a4fbf" stroke-width="2" stroke-linecap="round"/>
<line x1="846.0" y1="308.0" x2="845.543" y2="310.296" stroke="#7a4fbf" stroke-width="2" stroke-linecap="round"/>
<line x1="845.543" y1="310.296" x2="844.243" y2="312.243" stroke="#7a4fbf" stroke-width="2" stroke-linecap="round"/>
<line x1="844.243" y1="312.243" x2="842.296" y2="313.543" stroke="#7a4fbf" stroke-width="2" stroke-linecap="round"/>
<line x1="842.296" y1="313.543" x2="840.0" y2="314.0" stroke="#7a4fbf" stroke-width="2" stroke-linecap="round"/>
<line x1="840.0" y1="255.0" x2="840.0" y2="266.0" stroke="#7a4fbf" stroke-width="2" stroke-linecap="round"/>
<line x1="840.0" y1="314.0" x2="840.0" y2="325.0" stroke="#7a4fbf" stroke-width="2" stroke-linecap="round"/>
<line x1="840.0" y1="325.0" x2="840.0" y2="335.0" stroke="#7a4fbf" stroke-width="2" stroke-linecap="round"/>
<line x1="828.0" y1="335.0" x2="852.0" y2="335.0" stroke="#7a4fbf" stroke-width="2" stroke-linecap="round"/>
<line x1="832.0" y1="341.0" x2="848.0" y2="341.0" stroke="#7a4fbf" stroke-width="2" stroke-linecap="round"/>
<line x1="836.0" y1="347.0" x2="844.0" y2="347.0" stroke="#7a4fbf" stroke-width="2" stroke-linecap="round"/>
<line x1="900.0" y1="255.0" x2="900.0" y2="225.0" stroke="#7a4fbf" stroke-width="2" stroke-linecap="round"/>
<line x1="900.0" y1="225.0" x2="888.7071505320993" y2="208.49328770180642" stroke="#7a4fbf" stroke-width="2" stroke-linecap="round"/>
<line x1="900.0" y1="225.0" x2="911.2928494679007" y2="208.49328770180642" stroke="#7a4fbf" stroke-width="2" stroke-linecap="round"/>
<line x1="132.0" y1="70.0" x2="208.0" y2="70.0" stroke="#cf3b2e" stroke-width="2" stroke-linecap="round"/>
<line x1="208.0" y1="70.0" x2="370.0" y2="70.0" stroke="#222222" stroke-width="2" stroke-linecap="round"/>
<line x1="370.0" y1="70.0" x2="400.0" y2="70.0" stroke="#222222" stroke-width="2" stroke-linecap="round"/>
<line x1="132.0" y1="170.0" x2="208.0" y2="170.0" stroke="#cf3b2e" stroke-width="2" stroke-linecap="round"/>
<line x1="208.0" y1="170.0" x2="253.0" y2="170.0" stroke="#222222" stroke-width="2" stroke-linecap="round"/>
<line x1="132.0" y1="398.0" x2="208.0" y2="398.0" stroke="#1f6feb" stroke-width="2" stroke-linecap="round"/>
<line x1="208.0" y1="398.0" x2="253.0" y2="398.0" stroke="#222222" stroke-width="2" stroke-linecap="round"/>
<line x1="132.0" y1="502.0" x2="208.0" y2="502.0" stroke="#1f6feb" stroke-width="2" stroke-linecap="round"/>
<line x1="208.0" y1="502.0" x2="253.0" y2="502.0" stroke="#222222" stroke-width="2" stroke-linecap="round"/>
<line x1="370.0" y1="170.0" x2="370.0" y2="438.0" stroke="#222222" stroke-width="2" stroke-linecap="round"/>
<line x1="287.0" y1="170.0" x2="370.0" y2="170.0" stroke="#222222" stroke-width="2" stroke-linecap="round"/>
<line x1="287.0" y1="398.0" x2="370.0" y2="398.0" stroke="#222222" stroke-width="2" stroke-linecap="round"/>
<line x1="370.0" y1="255.0" x2="466.0" y2="255.0" stroke="#222222" stroke-width="2" stroke-linecap="round"/>
<line x1="466.0" y1="255.0" x2="502.0" y2="255.0" stroke="#222222" stroke-width="2" stroke-linecap="round"/>
<line x1="370.0" y1="538.0" x2="400.0" y2="538.0" stroke="#222222" stroke-width="2" stroke-linecap="round"/>
<line x1="287.0" y1="502.0" x2="287.0" y2="538.0" stroke="#222222" stroke-width="2" stroke-linecap="round"/>
<line x1="287.0" y1="538.0" x2="370.0" y2="538.0" stroke="#222222" stroke-width="2" stroke-linecap="round"/>
<line x1="544.0" y1="255.0" x2="586.0" y2="255.0" stroke="#222222" stroke-width="2" stroke-linecap="round"/>
<line x1="586.0" y1="255.0" x2="615.0" y2="255.0" stroke="#222222" stroke-width="2" stroke-linecap="round"/>
<line x1="655.0" y1="255.0" x2="720.0" y2="255.0" stroke="#222222" stroke-width="2" stroke-linecap="round"/>
<line x1="800.0" y1="255.0" x2="840.0" y2="255.0" stroke="#222222" stroke-width="2" stroke-linecap="round"/>
<line x1="840.0" y1="255.0" x2="900.0" y2="255.0" stroke="#222222" stroke-width="2" stroke-linecap="round"/>
<line x1="460.0" y1="70.0" x2="440.0" y2="70.0" stroke="#222222" stroke-width="2" stroke-linecap="round"/>
<line x1="460.0" y1="538.0" x2="440.0" y2="538.0" stroke="#222222" stroke-width="2" stroke-linecap="round"/>
<line x1="142.0" y1="70.0" x2="144.5" y2="73.827" stroke="#cf3b2e" stroke-width="2" stroke-linecap="round"/>
<line x1="144.5" y1="73.827" x2="147.0" y2="77.071" stroke="#cf3b2e" stroke-width="2" stroke-linecap="round"/>
<line x1="147.0" y1="77.071" x2="149.5" y2="79.239" stroke="#cf3b2e" stroke-width="2" stroke-linecap="round"/>
<line x1="149.5" y1="79.239" x2="152.0" y2="80.0" stroke="#cf3b2e" stroke-width="2" stroke-linecap="round"/>
<line x1="152.0" y1="80.0" x2="154.5" y2="79.239" stroke="#cf3b2e" stroke-width="2" stroke-linecap="round"/>
<line x1="154.5" y1="79.239" x2="157.0" y2="77.071" stroke="#cf3b2e" stroke-width="2" stroke-linecap="round"/>
<line x1="157.0" y1="77.071" x2="159.5" y2="73.827" stroke="#cf3b2e" stroke-width="2" stroke-linecap="round"/>
<line x1="159.5" y1="73.827" x2="162.0" y2="70.0" stroke="#cf3b2e" stroke-width="2" stroke-linecap="round"/>
<line x1="142.0" y1="170.0" x2="144.5" y2="173.827" stroke="#cf3b2e" stroke-width="2" stroke-linecap="round"/>
<line x1="144.5" y1="173.827" x2="147.0" y2="177.071" stroke="#cf3b2e" stroke-width="2" stroke-linecap="round"/>
<line x1="147.0" y1="177.071" x2="149.5" y2="179.239" stroke="#cf3b2e" stroke-width="2" stroke-linecap="round"/>
<line x1="149.5" y1="179.239" x2="152.0" y2="180.0" stroke="#cf3b2e" stroke-width="2" stroke-linecap="round"/>
<line x1="152.0" y1="180.0" x2="154.5" y2="179.239" stroke="#cf3b2e" stroke-width="2" stroke-linecap="round"/>
<line x1="154.5" y1="179.239" x2="157.0" y2="177.071" stroke="#cf3b2e" stroke-width="2" stroke-linecap="round"/>
<line x1="157.0" y1="177.071" x2="159.5" y2="173.827" stroke="#cf3b2e" stroke-width="2" stroke-linecap="round"/>
<line x1="159.5" y1="173.827" x2="162.0" y2="170.0" stroke="#cf3b2e" stroke-width="2" stroke-linecap="round"/>
<line x1="142.0" y1="398.0" x2="144.5" y2="401.827" stroke="#1f6feb" stroke-width="2" stroke-linecap="round"/>
<line x1="144.5" y1="401.827" x2="147.0" y2="405.071" stroke="#1f6feb" stroke-width="2" stroke-linecap="round"/>
<line x1="147.0" y1="405.071" x2="149.5" y2="407.239" stroke="#1f6feb" stroke-width="2" stroke-linecap="round"/>
<line x1="149.5" y1="407.239" x2="152.0" y2="408.0" stroke="#1f6feb" stroke-width="2" stroke-linecap="round"/>
<line x1="152.0" y1="408.0" x2="154.5" y2="407.239" stroke="#1f6feb" stroke-width="2" stroke-linecap="round"/>
<line x1="154.5" y1="407.239" x2="157.0" y2="405.071" stroke="#1f6feb" stroke-width="2" stroke-linecap="round"/>
<line x1="157.0" y1="405.071" x2="159.5" y2="401.827" stroke="#1f6feb" stroke-width="2" stroke-linecap="round"/>
<line x1="159.5" y1="401.827" x2="162.0" y2="398.0" stroke="#1f6feb" stroke-width="2" stroke-linecap="round"/>
<line x1="142.0" y1="502.0" x2="144.5" y2="505.827" stroke="#1f6feb" stroke-width="2" stroke-linecap="round"/>
<line x1="144.5" y1="505.827" x2="147.0" y2="509.071" stroke="#1f6feb" stroke-width="2" stroke-linecap="round"/>
<line x1="147.0" y1="509.071" x2="149.5" y2="511.239" stroke="#1f6feb" stroke-width="2" stroke-linecap="round"/>
<line x1="149.5" y1="511.239" x2="152.0" y2="512.0" stroke="#1f6feb" stroke-width="2" stroke-linecap="round"/>
<line x1="152.0" y1="512.0" x2="154.5" y2="511.239" stroke="#1f6feb" stroke-width="2" stroke-linecap="round"/>
<line x1="154.5" y1="511.239" x2="157.0" y2="509.071" stroke="#1f6feb" stroke-width="2" stroke-linecap="round"/>
<line x1="157.0" y1="509.071" x2="159.5" y2="505.827" stroke="#1f6feb" stroke-width="2" stroke-linecap="round"/>
<line x1="159.5" y1="505.827" x2="162.0" y2="502.0" stroke="#1f6feb" stroke-width="2" stroke-linecap="round"/>
<circle cx="208.0" cy="70.0" r="3.2" fill="#cf3b2e"/>
<circle cx="208.0" cy="170.0" r="3.2" fill="#cf3b2e"/>
<circle cx="208.0" cy="398.0" r="3.2" fill="#1f6feb"/>
<circle cx="208.0" cy="502.0" r="3.2" fill="#1f6feb"/>
<circle cx="370.0" cy="70.0" r="3.2" fill="#222222"/>
<circle cx="370.0" cy="170.0" r="3.2" fill="#222222"/>
<circle cx="370.0" cy="255.0" r="3.2" fill="#222222"/>
<circle cx="370.0" cy="398.0" r="3.2" fill="#222222"/>
<circle cx="370.0" cy="538.0" r="3.2" fill="#222222"/>
<circle cx="466.0" cy="255.0" r="3.2" fill="#222222"/>
<circle cx="586.0" cy="255.0" r="3.2" fill="#222222"/>
<circle cx="840.0" cy="255.0" r="3.2" fill="#222222"/>
<text x="8.199999999999996" y="143.6" font-size="9.5" font-family="Inter, Helvetica, Arial, sans-serif" font-weight="500" fill="#0F172A">gates x4</text>
<text x="37.35" y="89.2" font-size="11.5" font-family="Inter, Helvetica, Arial, sans-serif" font-weight="500" fill="#0F172A">PA</text>
<text x="132.0" y="419.2" font-size="11.5" font-family="Inter, Helvetica, Arial, sans-serif" font-weight="500" fill="#0F172A">LNA</text>
<text x="10" y="608.0" font-size="10" font-family="Inter, Helvetica, Arial, sans-serif" font-weight="500" fill="#666666">PA internally shunted, 1.5 ohm each leg</text>
<text x="889.275" y="192.4" font-size="13.0" font-family="Inter, Helvetica, Arial, sans-serif" font-weight="600" fill="#7a4fbf">ANT</text>
<text x="888.45" y="171.9" font-size="10.5" font-family="Inter, Helvetica, Arial, sans-serif" font-weight="500" fill="#7a4fbf">50 Ω</text>
<text x="138.0" y="45.6" font-size="9.5" font-family="Inter, Helvetica, Arial, sans-serif" font-weight="500" fill="#cf3b2e">bondwire</text>
<text x="138.0" y="375.6" font-size="9.5" font-family="Inter, Helvetica, Arial, sans-serif" font-weight="500" fill="#1f6feb">bondwire</text>
<text x="236.0" y="101.45" font-size="11.5" font-family="Inter, Helvetica, Arial, sans-serif" font-weight="500" fill="#cf3b2e">C1  1.6 pF</text>
<text x="307.4" y="145.45" font-size="11.5" font-family="Inter, Helvetica, Arial, sans-serif" font-weight="500" fill="#cf3b2e">L3  4 nH</text>
<text x="242.4" y="201.2" font-size="11.5" font-family="Inter, Helvetica, Arial, sans-serif" font-weight="500" fill="#cf3b2e">C2  1 pF</text>
<text x="385.5" y="47.2" font-size="11.5" font-family="Inter, Helvetica, Arial, sans-serif" font-weight="500" fill="#cf3b2e">C4  1.7 pF</text>
<text x="235.5" y="375.2" font-size="11.5" font-family="Inter, Helvetica, Arial, sans-serif" font-weight="500" fill="#1f6feb">C6  300 fF</text>
<text x="226.0" y="453.45" font-size="11.5" font-family="Inter, Helvetica, Arial, sans-serif" font-weight="500" fill="#1f6feb">L5  5.1 nH</text>
<text x="388.0" y="491.45" font-size="11.5" font-family="Inter, Helvetica, Arial, sans-serif" font-weight="500" fill="#1f6feb">L7  11 nH</text>
<text x="238.95" y="479.2" font-size="11.5" font-family="Inter, Helvetica, Arial, sans-serif" font-weight="500" fill="#1f6feb">C8  10 pF</text>
<text x="385.5" y="515.2" font-size="11.5" font-family="Inter, Helvetica, Arial, sans-serif" font-weight="500" fill="#1f6feb">C9  600 fF</text>
<text x="485.05" y="243.7" font-size="11.5" font-family="Inter, Helvetica, Arial, sans-serif" font-weight="500" fill="#7a4fbf">L11  2.9 nH</text>
<text x="566.0" y="232.2" font-size="11.5" font-family="Inter, Helvetica, Arial, sans-serif" font-weight="500" fill="#7a4fbf">C13  33 pF  DC BLOCK</text>
<text x="858.0" y="293.45" font-size="11.5" font-family="Inter, Helvetica, Arial, sans-serif" font-weight="500" fill="#7a4fbf">L14  6.8 nH  ESD</text>
<text x="486.0" y="276.45" font-size="11.5" font-family="Inter, Helvetica, Arial, sans-serif" font-weight="500" fill="#7a4fbf">C10  800 fF</text>
<text x="606.0" y="288.45" font-size="11.5" font-family="Inter, Helvetica, Arial, sans-serif" font-weight="500" fill="#7a4fbf">C12  1.4 pF</text>
<text x="694.45" y="277.2" font-size="11.5" font-family="Inter, Helvetica, Arial, sans-serif" font-weight="500" fill="#7a4fbf">R_ant0  0 Ω  BRIDGE</text>
<text x="151.0" y="62.8" font-size="8.5" font-family="Inter, Helvetica, Arial, sans-serif" font-weight="500" fill="#cf3b2e">Bp</text>
<text x="151.0" y="196.8" font-size="8.5" font-family="Inter, Helvetica, Arial, sans-serif" font-weight="500" fill="#cf3b2e">Bn</text>
<text x="151.0" y="390.8" font-size="8.5" font-family="Inter, Helvetica, Arial, sans-serif" font-weight="500" fill="#1f6feb">rx_Bp</text>
<text x="151.0" y="528.8" font-size="8.5" font-family="Inter, Helvetica, Arial, sans-serif" font-weight="500" fill="#1f6feb">rx_Bn</text>
<text x="322.0" y="218.8" font-size="8.5" font-family="Inter, Helvetica, Arial, sans-serif" font-weight="500" fill="#7a4fbf">Up</text>
<text x="295.0" y="526.8" font-size="8.5" font-family="Inter, Helvetica, Arial, sans-serif" font-weight="500" fill="#1f6feb">rx_Bn_dcblk</text>
<text x="560.0" y="326.8" font-size="8.5" font-family="Inter, Helvetica, Arial, sans-serif" font-weight="500" fill="#7a4fbf">n_pi1_out</text>
<text x="677.0" y="247.8" font-size="8.5" font-family="Inter, Helvetica, Arial, sans-serif" font-weight="500" fill="#7a4fbf">n_pi1_out_rf</text>
<text x="458.0" y="196.8" font-size="13.5" font-family="Inter, Helvetica, Arial, sans-serif" font-weight="700" fill="#7a4fbf">Pi1 shared</text>
</svg>
